<svg width="1371" height="525" xmlns="http://www.w3.org/2000/svg" xmlns:xlink="http://www.w3.org/1999/xlink" xml:space="preserve" overflow="hidden"><g transform="translate(-2284 -1378)"><path d="M2803.75 1551 2754.86 1507.75 2776.49 1507.75C2756.24 1431.37 2685.53 1378 2604.56 1378L2647.81 1378C2728.78 1378 2799.49 1431.37 2819.74 1507.75L2841.36 1507.75Z" fill="#FFC000" fill-rule="evenodd"/><path d="M2626.19 1379.29C2537.15 1389.93 2470.25 1463.6 2470.25 1551L2427 1551C2427 1455.45 2506.5 1378 2604.56 1378 2611.79 1378 2619.01 1378.43 2626.19 1379.29Z" fill="#CD9A00" fill-rule="evenodd"/><g><g><g><path d="M252.632 258.673 252.632 208.202C252.47 200.294 248.762 192.877 242.532 188.002 228.645 176.639 210.989 169.064 193.323 164.014 179.828 159.881 165.797 157.754 151.683 157.702 137.584 157.945 123.58 160.068 110.043 164.014 92.3992 169.165 75.7594 177.276 60.8335 188.002 54.604 192.877 50.8958 200.294 50.7335 208.202L50.7335 258.673Z" stroke="#160003" stroke-width="3.15625" fill="#191919" transform="matrix(1.04951 0 0 1 3337 1600)"/><path d="M104.901 75.75C94.4435 101.589 106.913 131.012 132.751 141.47 158.59 151.928 188.014 139.459 198.471 113.62 203.386 101.475 203.386 87.8949 198.471 75.75Z" stroke="#160003" stroke-width="3.15625" fill="#191919" transform="matrix(1.04951 0 0 1 3337 1600)"/><path d="M98.9799 69.4406 95.9878 9.46875 123.709 29.6309 151.434 9.46875 179.155 29.6309 206.879 9.46875 203.887 69.4406 98.9799 69.4406Z" stroke="#160003" stroke-width="3.15625" fill="#191919" transform="matrix(1.04951 0 0 1 3337 1600)"/></g></g></g><path d="M3452.75 1551 3403.88 1507.75 3425.5 1507.75C3405.32 1431.37 3334.8 1378 3254.06 1378L3297.31 1378C3378.05 1378 3448.57 1431.37 3468.75 1507.75L3490.38 1507.75Z" fill="#FFC000" fill-rule="evenodd"/><path d="M3275.69 1379.3C3186.93 1389.97 3120.25 1463.63 3120.25 1551L3077 1551C3077 1455.45 3156.27 1378 3254.06 1378 3261.29 1378 3268.51 1378.43 3275.69 1379.3Z" fill="#CD9A00" fill-rule="evenodd"/><g><g><g><path d="M270.562 274.219 226.687 274.219 226.687 241.312 270.562 241.312 270.562 274.219ZM197.437 274.219 153.562 274.219 153.562 241.312 197.437 241.312 197.437 274.219ZM124.312 274.219 80.4375 274.219 80.4375 241.312 124.312 241.312 124.312 274.219ZM201.094 201.094 201.094 149.906 102.375 201.094 91.4062 51.1875 62.1562 51.1875 51.1875 201.094 51.1875 299.812 299.812 299.812 299.812 201.094 299.812 149.906 201.094 201.094Z" transform="matrix(1.05128 0 0 1 2777 1552)"/></g></g></g><g><g><g><path d="M252.632 258.673 252.632 208.202C252.47 200.294 248.762 192.877 242.532 188.002 228.645 176.639 210.989 169.064 193.323 164.014 179.828 159.881 165.797 157.754 151.683 157.702 137.584 157.945 123.58 160.068 110.043 164.014 92.3992 169.165 75.7594 177.276 60.8335 188.002 54.604 192.877 50.8958 200.294 50.7335 208.202L50.7335 258.673Z" stroke="#160003" stroke-width="3.15625" fill="#191919" transform="matrix(1.04951 0 0 1 2284 1600)"/><path d="M104.901 75.75C94.4435 101.589 106.913 131.012 132.751 141.47 158.59 151.928 188.014 139.459 198.471 113.62 203.386 101.475 203.386 87.8949 198.471 75.75Z" stroke="#160003" stroke-width="3.15625" fill="#191919" transform="matrix(1.04951 0 0 1 2284 1600)"/><path d="M98.9799 69.4406 95.9878 9.46875 123.709 29.6309 151.434 9.46875 179.155 29.6309 206.879 9.46875 203.887 69.4406 98.9799 69.4406Z" stroke="#160003" stroke-width="3.15625" fill="#191919" transform="matrix(1.04951 0 0 1 2284 1600)"/></g></g></g></g></svg>