<svg width="58" height="50" xmlns="http://www.w3.org/2000/svg" xmlns:xlink="http://www.w3.org/1999/xlink" xml:space="preserve" overflow="hidden"><g transform="translate(-967 -28)"><path d="M45.8333 24.4792C45.8333 22.7604 44.4271 21.3542 42.7083 21.3542L32.8125 21.3542C31.9792 21.3542 31.3021 20.6771 31.25 19.8437 31.3021 18.9062 32.8125 17.0312 32.8125 9.89583 32.8125 8.17708 31.4062 6.77083 29.6875 6.77083 27.9688 6.77083 26.5625 8.17708 26.5625 9.89583 26.5625 17.8125 17.3437 22.2917 17.1875 22.3958L17.1875 39.0625C20.8854 39.0625 21.1458 43.2292 28.125 43.2292 30.4687 43.2292 37.5 43.2292 37.5 43.2292 39.2188 43.2292 40.625 41.8229 40.625 40.1042 40.625 39.2708 40.3125 38.5417 39.7917 38.0208 39.8958 38.0208 40 38.0208 40.1042 38.0208 41.8229 38.0208 43.2292 36.6146 43.2292 34.8958 43.2292 34.0625 42.9167 33.2812 42.3438 32.7083 43.75 32.3958 44.7917 31.1458 44.7917 29.6875 44.7917 28.8021 44.4271 27.9688 43.8021 27.3958 45 26.9792 45.8333 25.8333 45.8333 24.4792Z" fill="#CC9B00" transform="matrix(-1.83697e-16 -1 1.16 -2.13089e-16 967 78)"/><path d="M11.9792 19.7917 4.16667 19.7917 4.16667 41.6667 11.9792 41.6667C13.125 41.6667 14.0625 40.7292 14.0625 39.5833L14.0625 21.875C14.0625 20.7292 13.125 19.7917 11.9792 19.7917Z" fill="#CC9B00" transform="matrix(-1.83697e-16 -1 1.16 -2.13089e-16 967 78)"/></g></svg>