<svg width="114" height="113" xmlns="http://www.w3.org/2000/svg" xmlns:xlink="http://www.w3.org/1999/xlink" xml:space="preserve" overflow="hidden"><g transform="translate(-222 -240)"><path d="M75.3333 35.3125C75.3333 45.7139 66.9014 54.1458 56.5 54.1458 46.0986 54.1458 37.6667 45.7139 37.6667 35.3125 37.6667 24.9111 46.0986 16.4792 56.5 16.4792 66.9014 16.4792 75.3333 24.9111 75.3333 35.3125Z" transform="matrix(1.00885 0 0 1 222 240)"/><path d="M90.6354 68.1649C90.3143 65.7129 89.0987 63.466 87.2219 61.8557 82.193 58.4122 76.5636 55.9409 70.625 54.5696 69.9541 54.4166 69.2478 54.2871 68.5416 54.1576 61.242 58.8349 51.8875 58.8349 44.5879 54.1576L42.4692 54.546C36.525 56.0002 30.8778 58.4733 25.7781 61.8557 23.6829 63.1976 22.8119 65.693 22.3646 68.1649L18.8333 88.399C18.622 90.1067 19.3295 91.7989 20.6931 92.8483L28.7561 98.1688 28.7561 72.6849C28.756 69.7335 31.1486 67.3409 34.1 67.3408 34.1118 67.3408 34.1236 67.3408 34.1354 67.3409L78.8646 67.3409C81.816 67.3409 84.2085 69.7335 84.2085 72.6849L84.2085 97.5214 92.7071 92.1892C93.7133 91.5098 94.272 90.3382 94.1667 89.1288Z" transform="matrix(1.00885 0 0 1 222 240)"/><path d="M81.8897 102.018 81.8897 72.6849C81.8898 71.0337 80.5513 69.695 78.9001 69.6949 78.8883 69.6949 78.8765 69.695 78.8646 69.6951L34.1354 69.6951C32.4842 69.6951 31.1456 71.0337 31.1456 72.6849L31.1456 102.018 22.1409 102.018 22.1409 103.513C22.1474 105.161 23.4822 106.496 25.1307 106.503L87.8693 106.503C89.5178 106.496 90.8526 105.161 90.8591 103.513L90.8591 102.018ZM50.4027 92.1892 48.743 93.8489 42.1396 87.2454 48.743 80.642 50.4027 82.3017 45.4707 87.2454ZM54.7932 94.6728 52.6156 93.7665 58.1361 80.4419 60.302 81.3482ZM64.2099 93.8489 62.5502 92.1892 67.4822 87.2454 62.5502 82.3017 64.2099 80.642 70.8133 87.2454Z" transform="matrix(1.00885 0 0 1 222 240)"/></g></svg>