<svg width="890" height="203" xmlns="http://www.w3.org/2000/svg" xmlns:xlink="http://www.w3.org/1999/xlink" xml:space="preserve" overflow="hidden"><g transform="translate(-2745 -744)"><g><g><g><path d="M2793.64 917.397 2793.64 773.603 2846.5 773.603 2846.5 818.011 2899.36 818.011 2899.36 917.397 2793.64 917.397ZM2859.18 778.891 2885.62 805.321 2859.18 805.321 2859.18 778.891ZM2859.18 760.918 2780.95 760.918 2780.95 930.082 2912.05 930.082 2912.05 807.435 2859.18 760.918Z"/><path d="M2806.32 839.157 2886.68 839.157 2886.68 847.614 2806.32 847.614Z"/><path d="M2806.32 822.239 2833.81 822.239 2833.81 830.696 2806.32 830.696Z"/><path d="M2806.32 856.071 2886.68 856.071 2886.68 864.532 2806.32 864.532Z"/><path d="M2806.32 872.989 2886.68 872.989 2886.68 881.446 2806.32 881.446Z"/><path d="M2806.32 889.907 2886.68 889.907 2886.68 898.364 2806.32 898.364Z"/></g></g></g><text fill="#3C4F59" font-family="Arial,Arial_MSFontService,sans-serif" font-weight="400" font-size="83" transform="matrix(1 0 0 1 2980.66 875)">Dokument</text></g></svg>