<svg width="41" height="41" xmlns="http://www.w3.org/2000/svg" xmlns:xlink="http://www.w3.org/1999/xlink" xml:space="preserve" overflow="hidden"><g transform="translate(-174 -318)"><path d="M183.823 353.021 183.823 323.979 194.5 323.979 194.5 332.948 205.177 332.948 205.177 353.021 183.823 353.021ZM197.062 325.047 202.401 330.385 197.062 330.385 197.062 325.047ZM197.062 321.417 181.26 321.417 181.26 355.583 207.74 355.583 207.74 330.812 197.062 321.417Z"/><path d="M186.385 337.219 202.615 337.219 202.615 338.927 186.385 338.927Z"/><path d="M186.385 333.802 191.938 333.802 191.938 335.51 186.385 335.51Z"/><path d="M186.385 340.635 202.615 340.635 202.615 342.344 186.385 342.344Z"/><path d="M186.385 344.052 202.615 344.052 202.615 345.76 186.385 345.76Z"/><path d="M186.385 347.469 202.615 347.469 202.615 349.177 186.385 349.177Z"/></g></svg>