<svg width="799" height="202" xmlns="http://www.w3.org/2000/svg" xmlns:xlink="http://www.w3.org/1999/xlink" xml:space="preserve" overflow="hidden"><g transform="translate(-3234 -1081)"><g><g><g><path d="M172.752 48.1854 157.812 44.1875 153.814 29.2479 172.752 10.3104C161.389 6.10208 148.764 8.41666 139.717 16.6229 130.879 24.8291 127.092 37.2437 130.458 48.8166L48.8166 130.458C37.2437 127.302 24.8291 131.089 16.8333 139.927 8.83749 148.764 6.31249 161.389 10.5208 172.752L29.4583 153.814 44.1875 157.812 48.1854 172.752 29.2479 191.689C40.6104 195.898 53.2354 193.583 62.2833 185.377 71.1208 177.171 74.9082 164.756 71.5416 153.183L153.183 71.5416C164.756 74.6978 177.171 70.9103 185.166 62.0728 193.162 53.2354 195.687 40.6104 191.479 29.2479L172.752 48.1854Z" transform="matrix(1 0 0 1 3234 1081)"/></g></g></g><text fill="#3C4F59" font-family="Arial,Arial_MSFontService,sans-serif" font-weight="400" font-size="83" transform="matrix(1 0 0 1 3469.47 1212)">Equipment</text></g></svg>