<svg width="59" height="59" xmlns="http://www.w3.org/2000/svg" xmlns:xlink="http://www.w3.org/1999/xlink" xml:space="preserve" overflow="hidden"><g transform="translate(-941 -314)"><path d="M991.457 328.074 987.094 326.906 985.926 322.543 991.457 317.011C988.139 315.782 984.451 316.458 981.808 318.855 979.227 321.252 978.121 324.878 979.104 328.258L955.258 352.104C951.878 351.182 948.252 352.289 945.917 354.87 943.581 357.451 942.844 361.139 944.073 364.457L949.604 358.926 953.906 360.094 955.074 364.457 949.543 369.989C952.861 371.218 956.549 370.542 959.192 368.145 961.773 365.748 962.879 362.122 961.896 358.742L985.742 334.896C989.122 335.818 992.748 334.711 995.083 332.13 997.419 329.549 998.156 325.861 996.927 322.543L991.457 328.074Z"/></g></svg>