<svg width="1169" height="207" xmlns="http://www.w3.org/2000/svg" xmlns:xlink="http://www.w3.org/1999/xlink" xml:space="preserve" overflow="hidden"><g transform="translate(-294 -991)"><g><g><g><path d="M192.782 90.683C192.782 75.6622 184.37 53.6459 166.302 53.6459L127.677 53.6459C126.718 51.7189 125.061 50.2299 123.042 49.483 120.978 48.6478 118.669 48.6478 116.605 49.483 114.958 47.9882 112.82 47.1485 110.596 47.1226 108.094 47.1011 105.697 48.1283 103.987 49.9551 101.69 48.9465 99.0748 48.9465 96.7772 49.9551 95.0674 50.7231 93.6469 52.0159 92.7216 53.6459 92.7216 53.6459 35.8998 53.6459 35.7282 53.7747 23.3896 55.1694 13.9479 70.6195 13.9479 90.1251 13.9479 110.575 24.3123 126.604 37.5521 126.604L87.9793 126.604 87.9793 158.792 109.438 142.162 130.896 158.792 130.896 126.604 181.323 126.604C183.693 126.604 185.615 124.683 185.615 122.313 185.615 119.942 183.693 118.021 181.323 118.021 175.107 118.3 169.833 113.506 169.521 107.292L182.396 107.292C187.417 107.292 192.782 103 192.782 90.683ZM110.167 62.6155C120.573 62.6155 129.008 71.0508 129.007 81.4561 129.007 91.8615 120.572 100.297 110.167 100.296 99.7951 100.296 91.374 91.9135 91.3268 81.5418 91.2794 71.1366 99.676 62.6631 110.081 62.6157 110.11 62.6155 110.138 62.6155 110.167 62.6155ZM83.8164 62.2292C83.7737 62.7719 83.7737 63.3174 83.8164 63.8601 79.2324 65.6641 76.9688 70.834 78.7522 75.4261 77.207 77.0911 76.3351 79.2704 76.3059 81.5418 76.3319 83.9842 77.3552 86.31 79.1384 87.9793 78.131 90.2695 78.131 92.8776 79.1384 95.1678 79.7292 96.5558 80.6588 97.7731 81.8422 98.7085L57.7659 98.7085C59.2686 95.3296 60.0574 91.677 60.0834 87.9793 60.0834 77.2501 57.4655 68.3234 53.0665 62.2292ZM37.5521 118.021C30.2992 118.021 22.5313 106.82 22.5313 90.1251 22.5313 73.4305 30.2992 62.2292 37.5521 62.2292 45.6419 62.2292 51.5001 72.9584 51.5001 87.9793 51.5001 87.9793 51.3499 98.7085 45.0626 98.7085 42.0155 98.7085 38.625 93.6657 38.625 86.9064 38.6145 85.4635 38.7656 84.0239 39.0757 82.6147 39.5911 80.2978 38.1309 78.0016 35.814 77.4861 33.4971 76.9707 31.2009 78.431 30.6855 80.7478 30.246 82.7709 30.0301 84.8361 30.0417 86.9064 30.0417 98.3437 36.6509 107.292 45.0626 107.292L87.9793 107.292 87.9793 118.021ZM109.438 131.304 96.5626 141.282 96.5626 112.635C97.0598 112.946 97.584 113.212 98.1291 113.429 100.199 114.234 102.496 114.234 104.567 113.429 106.221 114.964 108.383 115.835 110.639 115.875 113.139 115.886 115.532 114.861 117.248 113.043 118.846 113.715 120.602 113.923 122.313 113.643L122.313 141.282ZM130.896 118.021 130.896 108.043C131.549 107.856 132.182 107.604 132.784 107.292L160.938 107.292C160.938 111.142 162.146 114.894 164.393 118.021ZM138.192 98.7085C140.229 97.7662 141.815 96.0639 142.612 93.9662 143.411 91.8946 143.411 89.6003 142.612 87.5287 144.128 85.895 144.971 83.749 144.973 81.5203 144.984 79.0202 143.958 76.6274 142.14 74.9111 143.138 72.6114 143.138 70.0008 142.14 67.7011 141.255 65.6306 139.601 63.9843 137.527 63.109 137.487 62.8108 137.423 62.5166 137.334 62.2292L166.302 62.2292C174.886 62.2292 180.422 71.5636 182.761 80.2972 185.486 90.5543 183.684 97.9574 182.396 98.7085Z" transform="matrix(1 0 0 1.00485 294 991)"/></g></g></g><text fill="#3C4F59" font-family="Arial,Arial_MSFontService,sans-serif" font-weight="400" font-size="83" transform="matrix(1 0 0 1 531.217 1126)">Qualitätsmanagement</text></g></svg>