<svg width="60" height="60" xmlns="http://www.w3.org/2000/svg" xmlns:xlink="http://www.w3.org/1999/xlink" xml:space="preserve" overflow="hidden"><g transform="translate(-63 -412)"><path d="M119.15 438.413C119.15 434.038 116.7 427.625 111.438 427.625L100.188 427.625C99.9082 427.064 99.4254 426.63 98.8375 426.413 98.2362 426.169 97.5638 426.169 96.9625 426.413 96.4828 425.977 95.8603 425.733 95.2125 425.725 94.4837 425.719 93.7856 426.018 93.2875 426.55 92.6183 426.256 91.8567 426.256 91.1875 426.55 90.6895 426.774 90.2757 427.15 90.0062 427.625 90.0062 427.625 73.4563 427.625 73.4062 427.663 69.8125 428.069 67.0625 432.569 67.0625 438.25 67.0625 444.206 70.0813 448.875 73.9375 448.875L88.625 448.875 88.625 458.25 94.875 453.406 101.125 458.25 101.125 448.875 115.812 448.875C116.503 448.875 117.062 448.315 117.062 447.625 117.062 446.935 116.503 446.375 115.812 446.375 114.002 446.456 112.466 445.06 112.375 443.25L116.125 443.25C117.587 443.25 119.15 442 119.15 438.413ZM95.0875 430.237C98.1182 430.237 100.575 432.694 100.575 435.725 100.575 438.756 98.1181 441.213 95.0874 441.212 92.0665 441.212 89.6138 438.771 89.6 435.75 89.5862 432.719 92.0318 430.251 95.0624 430.238 95.0708 430.237 95.0791 430.237 95.0875 430.237ZM87.4125 430.125C87.4001 430.283 87.4001 430.442 87.4125 430.6 86.0774 431.125 85.4181 432.631 85.9375 433.969 85.4874 434.454 85.2335 435.088 85.225 435.75 85.2326 436.461 85.5306 437.139 86.05 437.625 85.7566 438.292 85.7566 439.052 86.05 439.719 86.2221 440.123 86.4928 440.478 86.8375 440.75L79.825 440.75C80.2627 439.766 80.4924 438.702 80.5 437.625 80.5 434.5 79.7375 431.9 78.4563 430.125ZM73.9375 446.375C71.825 446.375 69.5625 443.112 69.5625 438.25 69.5625 433.388 71.825 430.125 73.9375 430.125 76.2937 430.125 78 433.25 78 437.625 78 437.625 77.9563 440.75 76.125 440.75 75.2375 440.75 74.25 439.281 74.25 437.312 74.2469 436.892 74.2909 436.473 74.3812 436.062 74.5314 435.388 74.1061 434.719 73.4313 434.569 72.7564 434.419 72.0876 434.844 71.9375 435.519 71.8095 436.108 71.7466 436.71 71.75 437.312 71.75 440.644 73.675 443.25 76.125 443.25L88.625 443.25 88.625 446.375ZM94.875 450.244 91.125 453.15 91.125 444.806C91.2698 444.897 91.4225 444.974 91.5813 445.038 92.1842 445.272 92.8532 445.272 93.4563 445.038 93.938 445.485 94.5678 445.738 95.225 445.75 95.9532 445.753 96.6501 445.454 97.15 444.925 97.6154 445.121 98.1267 445.181 98.625 445.1L98.625 453.15ZM101.125 446.375 101.125 443.469C101.315 443.414 101.499 443.341 101.675 443.25L109.875 443.25C109.875 444.371 110.227 445.464 110.881 446.375ZM103.25 440.75C103.843 440.476 104.305 439.98 104.537 439.369 104.77 438.765 104.77 438.097 104.537 437.494 104.979 437.018 105.225 436.393 105.225 435.744 105.228 435.016 104.929 434.319 104.4 433.819 104.691 433.149 104.691 432.389 104.4 431.719 104.142 431.116 103.66 430.636 103.056 430.381 103.045 430.294 103.026 430.209 103 430.125L111.438 430.125C113.938 430.125 115.55 432.844 116.231 435.388 117.025 438.375 116.5 440.531 116.125 440.75Z"/></g></svg>