<svg width="1069" height="247" xmlns="http://www.w3.org/2000/svg" xmlns:xlink="http://www.w3.org/1999/xlink" xml:space="preserve" overflow="hidden"><g transform="translate(-1366 -1808)"><text fill="#3C4F59" font-family="Arial,Arial_MSFontService,sans-serif" font-weight="400" font-size="83" transform="matrix(1 0 0 1 1646.79 1958)">Änderungsnummer</text><g><g><g><path d="M116.347 187.334C84.0726 182.019 60.421 154.074 60.515 121.364 60.5636 117.313 60.9768 113.275 61.75 109.297L61.9558 109.297 66.6642 117.454C68.0852 119.919 71.2358 120.766 73.7011 119.345 76.1665 117.924 77.0133 114.773 75.5922 112.308L64.6573 93.3968C63.9766 92.2192 62.8573 91.3588 61.5441 91.004 60.224 90.6492 58.8168 90.8344 57.6333 91.5186L38.5937 102.505C36.0756 103.822 35.102 106.932 36.4193 109.45 37.7367 111.968 40.846 112.941 43.3642 111.624 43.4923 111.557 43.6176 111.485 43.7395 111.407L51.6127 106.853C50.697 111.636 50.2318 116.495 50.2233 121.364 50.1065 159.072 77.3464 191.302 114.546 197.471L115.421 197.471C118.263 197.699 120.751 195.579 120.978 192.737 121.206 189.895 119.086 187.407 116.244 187.18Z" transform="matrix(1.00405 0 0 1 1366 1808)"/><path d="M204.598 121.364C204.609 112.17 202.98 103.048 199.787 94.426 198.792 91.7617 195.826 90.4081 193.162 91.4028 190.497 92.3975 189.144 95.3638 190.138 98.028 203.022 132.654 185.396 171.169 150.769 184.052 150.522 184.144 150.275 184.235 150.027 184.324L150.027 184.324 154.709 176.142C156.13 173.669 155.278 170.513 152.805 169.092 150.333 167.671 147.177 168.523 145.756 170.996L134.949 189.958C133.536 192.424 134.388 195.568 136.853 196.982 136.853 196.982 136.853 196.982 136.853 196.982L155.816 207.814C158.288 209.235 161.444 208.383 162.865 205.91 164.287 203.438 163.434 200.282 160.962 198.861L152.934 194.307C183.978 183.537 204.741 154.223 204.598 121.364Z" transform="matrix(1.00405 0 0 1 1366 1808)"/><path d="M160.859 69.8289C158.017 69.8289 155.713 72.1327 155.713 74.9747 155.713 77.8168 158.017 80.1206 160.859 80.1206L182.008 80.1206C182.205 80.1332 182.403 80.1332 182.6 80.1206 183.59 80.1208 184.558 79.8252 185.379 79.2715L185.739 79.0399 185.893 78.9113 185.893 78.9113 186.228 78.654C187.235 77.6938 187.81 76.3664 187.823 74.9747L187.823 53.1564C187.823 50.3144 185.519 48.0106 182.677 48.0106 179.835 48.0106 177.531 50.3144 177.531 53.1564L177.531 62.5476 177.531 62.5476C145.084 34.8988 96.3667 38.7885 68.7179 71.2355 68.5988 71.375 68.4804 71.5152 68.3623 71.6557 66.5294 73.8298 66.8057 77.0783 68.9798 78.9113 71.154 80.7442 74.4025 80.4679 76.2355 78.2938 99.8649 50.1489 141.774 46.3351 170.095 69.7517Z" transform="matrix(1.00405 0 0 1 1366 1808)"/></g></g></g><text fill="#3C4F59" font-family="Arial,Arial_MSFontService,sans-serif" font-weight="700" font-size="37" transform="matrix(1 0 0 1 1460.48 1948)">123</text></g></svg>