<svg width="1428" height="525" xmlns="http://www.w3.org/2000/svg" xmlns:xlink="http://www.w3.org/1999/xlink" xml:space="preserve" overflow="hidden"><g transform="translate(-183 -1378)"><g><g><g><path d="M73.125 146.25 277.875 146.25 277.875 160.875 73.125 160.875Z" transform="matrix(1.05128 0 0 1 723 1545)"/><path d="M73.125 175.5 277.875 175.5 277.875 190.125 73.125 190.125Z" transform="matrix(1.05128 0 0 1 723 1545)"/><path d="M230.344 270.562 230.344 314.437 277.875 314.437 277.875 270.562ZM248.625 285.187 237.656 285.187 237.656 277.875 248.625 277.875Z" transform="matrix(1.05128 0 0 1 723 1545)"/><path d="M175.5 270.562 175.5 314.437 223.031 314.437 223.031 270.562ZM193.781 285.187 182.812 285.187 182.812 277.875 193.781 277.875Z" transform="matrix(1.05128 0 0 1 723 1545)"/><path d="M230.344 219.375 230.344 263.25 277.875 263.25 277.875 219.375ZM248.625 234 237.656 234 237.656 226.687 248.625 226.687Z" transform="matrix(1.05128 0 0 1 723 1545)"/><path d="M175.5 219.375 175.5 263.25 223.031 263.25 223.031 219.375ZM193.781 234 182.812 234 182.812 226.687 193.781 226.687Z" transform="matrix(1.05128 0 0 1 723 1545)"/><path d="M120.656 270.562 120.656 314.437 168.187 314.437 168.187 270.562ZM138.937 285.187 127.969 285.187 127.969 277.875 138.937 277.875Z" transform="matrix(1.05128 0 0 1 723 1545)"/><path d="M314.437 314.437 314.437 97.2197 175.5 40.2187 36.5625 97.2197 36.5625 314.437 58.5 314.437 58.5 131.625 292.5 131.625 292.5 314.437 314.437 314.437Z" transform="matrix(1.05128 0 0 1 723 1545)"/></g></g></g><path d="M759.75 1551 710.862 1507.75 732.487 1507.75C712.245 1431.37 641.531 1378 560.563 1378L603.812 1378C684.781 1378 755.494 1431.37 775.737 1507.75L797.362 1507.75Z" fill="#FFC000" fill-rule="evenodd"/><path d="M582.188 1379.29C493.153 1389.93 426.25 1463.6 426.25 1551L383 1551C383 1455.45 462.497 1378 560.562 1378 567.791 1378 575.013 1378.43 582.188 1379.29Z" fill="#CD9A00" fill-rule="evenodd"/><g><g><g><path d="M252.632 258.673 252.632 208.202C252.47 200.294 248.762 192.877 242.532 188.002 228.645 176.639 210.989 169.064 193.323 164.014 179.828 159.881 165.797 157.754 151.683 157.702 137.584 157.945 123.58 160.068 110.043 164.014 92.3992 169.165 75.7594 177.276 60.8335 188.002 54.604 192.877 50.8958 200.294 50.7335 208.202L50.7335 258.673Z" stroke="#160003" stroke-width="3.15625" fill="#191919" transform="matrix(1.04951 0 0 1 1293 1600)"/><path d="M104.901 75.75C94.4435 101.589 106.913 131.012 132.751 141.47 158.59 151.928 188.014 139.459 198.471 113.62 203.386 101.475 203.386 87.8949 198.471 75.75Z" stroke="#160003" stroke-width="3.15625" fill="#191919" transform="matrix(1.04951 0 0 1 1293 1600)"/><path d="M98.9799 69.4406 95.9878 9.46875 123.709 29.6309 151.434 9.46875 179.155 29.6309 206.879 9.46875 203.887 69.4406 98.9799 69.4406Z" stroke="#160003" stroke-width="3.15625" fill="#191919" transform="matrix(1.04951 0 0 1 1293 1600)"/></g></g></g><path d="M1408.75 1551 1359.88 1507.75 1381.5 1507.75C1361.32 1431.37 1290.8 1378 1210.06 1378L1253.31 1378C1334.05 1378 1404.57 1431.37 1424.75 1507.75L1446.38 1507.75Z" fill="#FFC000" fill-rule="evenodd"/><path d="M1231.69 1379.3C1142.93 1389.97 1076.25 1463.63 1076.25 1551L1033 1551C1033 1455.45 1112.27 1378 1210.06 1378 1217.29 1378 1224.51 1378.43 1231.69 1379.3Z" fill="#CD9A00" fill-rule="evenodd"/><g><g><g><path d="M271.333 275 227.333 275 227.333 242 271.333 242 271.333 275ZM198 275 154 275 154 242 198 242 198 275ZM124.667 275 80.6667 275 80.6667 242 124.667 242 124.667 275ZM201.667 201.667 201.667 150.333 102.667 201.667 91.6667 51.3333 62.3333 51.3333 51.3333 201.667 51.3333 300.667 300.667 300.667 300.667 201.667 300.667 150.333 201.667 201.667Z" transform="matrix(1.0483 0 0 1 183 1546)"/></g></g></g></g></svg>