<svg width="59" height="59" xmlns="http://www.w3.org/2000/svg" xmlns:xlink="http://www.w3.org/1999/xlink" xml:space="preserve" overflow="hidden"><g transform="translate(-56 -224)"><path d="M83.5948 268.496C83.2875 268.496 82.9187 268.434 82.6729 268.189 82.1812 267.758 82.1198 266.959 82.55 266.468L84.9469 263.702C85.3771 263.21 86.176 263.149 86.6677 263.579 87.1594 264.009 87.2208 264.808 86.7906 265.3L84.3938 268.066C84.2094 268.311 83.9021 268.434 83.5948 268.496Z"/><path d="M79.8458 267.082C79.4156 267.144 79.0469 267.021 78.6781 266.714 78.0635 266.16 78.0021 265.177 78.5552 264.562L81.3823 261.305C81.9354 260.691 82.9187 260.629 83.5333 261.182 84.1479 261.735 84.2094 262.719 83.6562 263.333L80.8292 266.591C80.5833 266.898 80.2146 267.082 79.8458 267.082Z"/><path d="M75.974 264.808C75.4823 264.87 74.9906 264.685 74.6219 264.378 73.8844 263.702 73.7615 262.534 74.4375 261.797L77.2646 258.54C77.9406 257.802 79.1083 257.679 79.8458 258.355 80.5833 259.031 80.7063 260.199 80.0302 260.936L77.2031 264.194C76.8958 264.562 76.4042 264.808 75.974 264.808Z"/><path d="M71.4875 262.534C70.9958 262.596 70.5042 262.411 70.1354 262.104 69.3979 261.428 69.275 260.26 69.951 259.523L73.2083 255.835C73.8844 255.098 75.0521 254.975 75.7896 255.651 76.5271 256.327 76.65 257.495 75.974 258.232L72.7167 261.92C72.3479 262.289 71.9177 262.473 71.4875 262.534Z"/><path d="M58.8271 249.014 63.5594 251.902C64.1125 252.271 64.9115 252.086 65.2188 251.472L70.9344 242.007C71.3031 241.454 71.1188 240.655 70.5042 240.348L65.8333 237.459 58.8271 249.014Z"/><path d="M98.6521 257.065 88.7573 248.583 88.0813 247.969 83.8406 252.824C83.226 253.561 82.3656 253.992 81.3823 254.053 81.2594 254.053 81.1365 254.053 81.075 254.053 80.1531 254.053 79.2927 253.746 78.6781 253.131 77.1417 251.779 77.0188 249.444 78.3094 247.907L81.9354 243.728C79.1083 243.359 75.4823 244.834 71.7333 242.991L66.3865 251.841 70.5656 256.696 72.1635 254.852C72.7167 254.176 73.5771 253.807 74.499 253.807L74.499 253.807C75.2365 253.807 75.974 254.053 76.5271 254.545 77.2031 255.098 77.5104 255.897 77.5719 256.757 77.8792 256.634 78.2479 256.573 78.6167 256.573 79.3542 256.573 80.0917 256.819 80.6448 257.31 81.3208 257.925 81.6896 258.724 81.6896 259.584 81.9354 259.523 82.2427 259.461 82.4885 259.461L82.4885 259.461C83.1646 259.461 83.7792 259.707 84.3323 260.138 84.8854 260.629 85.1927 261.305 85.2542 262.043 85.4385 261.981 85.6844 261.92 85.9302 261.92L85.9302 261.92C86.5448 261.92 87.0979 262.104 87.5281 262.534 88.0198 262.965 88.3271 263.579 88.3885 264.194 88.45 264.87 88.2042 265.484 87.774 265.976L85.6844 268.373 86.5448 269.049C86.975 269.295 87.4667 269.479 88.0198 269.418 89.3719 269.295 90.3552 268.127 90.2323 266.775 90.2323 266.775 90.2323 266.714 90.2323 266.714 90.4167 266.775 90.6625 266.775 90.8469 266.775 92.199 266.652 93.1823 265.484 93.0594 264.132 93.0594 264.132 93.0594 264.071 93.0594 264.071 93.2437 264.132 93.4896 264.132 93.674 264.132 95.026 264.009 96.0094 262.842 95.8865 261.49 95.8865 261.367 95.825 261.244 95.825 261.121 96.1937 261.305 96.624 261.428 97.1156 261.367 98.4677 261.244 99.451 260.076 99.3281 258.724 99.3896 258.048 99.0823 257.495 98.6521 257.065Z"/><path d="M112.173 249.014 107.441 251.902C106.887 252.271 106.089 252.086 105.781 251.472L100.066 242.007C99.6969 241.454 99.8812 240.655 100.496 240.348L105.228 237.459 112.173 249.014Z"/><path d="M99.3281 243.236C94.2271 245.08 90.5396 243.298 86.4219 242.499 86.3604 242.499 86.1146 242.438 86.1146 242.438 85.3771 242.376 84.5781 242.622 84.025 243.236L79.1698 248.768C78.2479 249.812 78.3708 251.349 79.4156 252.209 79.9688 252.64 80.5833 252.885 81.2594 252.824 81.874 252.762 82.4885 252.517 82.9187 251.964 82.9187 251.964 87.9583 246.186 87.9583 246.186L99.451 256.081 99.451 256.081 99.451 256.081C99.7583 256.389 99.8812 256.511 100.127 256.88L104.552 251.779 99.3281 243.236Z"/></g></svg>