<svg width="552" height="203" xmlns="http://www.w3.org/2000/svg" xmlns:xlink="http://www.w3.org/1999/xlink" xml:space="preserve" overflow="hidden"><g transform="translate(-724 -509)"><g><g><g><path d="M94.9447 153.096C93.8874 153.096 92.6187 152.884 91.7728 152.038 90.0812 150.558 89.8697 147.809 91.3499 146.118L99.5968 136.602C101.077 134.91 103.826 134.699 105.518 136.179 107.209 137.659 107.421 140.408 105.941 142.1L97.6937 151.615C97.0593 152.461 96.002 152.884 94.9447 153.096Z" transform="matrix(1 0 0 1 724 509)"/><path d="M82.0458 148.232C80.5655 148.444 79.2968 148.021 78.0281 146.963 75.9135 145.06 75.702 141.677 77.6051 139.562L87.3322 128.355C89.2353 126.241 92.6187 126.029 94.7332 127.932 96.8478 129.835 97.0593 133.219 95.1562 135.333L85.4291 146.54C84.5833 147.598 83.3145 148.232 82.0458 148.232Z" transform="matrix(1 0 0 1 724 509)"/><path d="M68.7239 140.408C67.0322 140.62 65.3406 139.985 64.0718 138.928 61.5343 136.602 61.1114 132.584 63.4374 130.047L73.1645 118.839C75.4906 116.302 79.5083 115.879 82.0458 118.205 84.5833 120.531 85.0062 124.549 82.6801 127.086L72.9531 138.294C71.8958 139.562 70.2041 140.408 68.7239 140.408Z" transform="matrix(1 0 0 1 724 509)"/><path d="M53.2875 132.584C51.5958 132.796 49.9041 132.161 48.6354 131.104 46.0979 128.778 45.675 124.76 48.001 122.223L59.2083 109.535C61.5343 106.998 65.552 106.575 68.0895 108.901 70.627 111.227 71.0499 115.245 68.7239 117.782L57.5166 130.47C56.2479 131.738 54.7677 132.373 53.2875 132.584Z" transform="matrix(1 0 0 1 724 509)"/><path d="M9.72707 86.0635 26.0094 96.002C27.9125 97.2707 30.6614 96.6364 31.7187 94.5218L51.3843 61.9572C52.6531 60.0541 52.0187 57.3052 49.9041 56.2479L33.8333 46.3093 9.72707 86.0635Z" transform="matrix(1 0 0 1 724 509)"/><path d="M146.752 113.764 112.707 84.5833 110.381 82.4687 95.7905 99.1739C93.6759 101.711 90.7155 103.192 87.3322 103.403 86.9093 103.403 86.4864 103.403 86.2749 103.403 83.103 103.403 80.1426 102.346 78.0281 100.231 72.7416 95.5791 72.3187 87.5437 76.7593 82.2572L89.2353 67.8781C79.5083 66.6093 67.0322 71.6843 54.1333 65.3406L35.7364 95.7905 50.1156 112.496 55.6135 106.152C57.5166 103.826 60.477 102.557 63.6489 102.557L63.6489 102.557C66.1864 102.557 68.7239 103.403 70.627 105.095 72.9531 106.998 74.0103 109.747 74.2218 112.707 75.2791 112.284 76.5478 112.073 77.8166 112.073 80.3541 112.073 82.8916 112.919 84.7947 114.61 87.1208 116.725 88.3895 119.474 88.3895 122.434 89.2353 122.223 90.2926 122.011 91.1385 122.011L91.1385 122.011C93.4645 122.011 95.5791 122.857 97.4822 124.337 99.3853 126.029 100.443 128.355 100.654 130.893 101.288 130.681 102.134 130.47 102.98 130.47L102.98 130.47C105.095 130.47 106.998 131.104 108.478 132.584 110.17 134.064 111.227 136.179 111.438 138.294 111.65 140.62 110.804 142.734 109.324 144.426L102.134 152.673 105.095 154.999C106.575 155.845 108.267 156.479 110.17 156.268 114.822 155.845 118.205 151.827 117.782 147.175 117.782 147.175 117.782 146.963 117.782 146.963 118.417 147.175 119.262 147.175 119.897 147.175 124.549 146.752 127.932 142.734 127.509 138.082 127.509 138.082 127.509 137.871 127.509 137.871 128.144 138.082 128.989 138.082 129.624 138.082 134.276 137.659 137.659 133.642 137.236 128.989 137.236 128.567 137.025 128.144 137.025 127.721 138.294 128.355 139.774 128.778 141.465 128.567 146.118 128.144 149.501 124.126 149.078 119.474 149.289 117.148 148.232 115.245 146.752 113.764Z" transform="matrix(1 0 0 1 724 509)"/><path d="M193.273 86.0635 176.99 96.002C175.087 97.2707 172.338 96.6364 171.281 94.5218L151.615 61.9572C150.347 60.0541 150.981 57.3052 153.096 56.2479L169.378 46.3093 193.273 86.0635Z" transform="matrix(1 0 0 1 724 509)"/><path d="M149.078 66.1864C131.527 72.5301 118.839 66.3979 104.672 63.6489 104.46 63.6489 103.614 63.4374 103.614 63.4374 101.077 63.226 98.328 64.0718 96.4249 66.1864L79.7197 85.2176C76.5478 88.8124 76.9708 94.0989 80.5655 97.0593 82.4687 98.5395 84.5833 99.3853 86.9093 99.1739 89.0239 98.9624 91.1385 98.1166 92.6187 96.2134 92.6187 96.2134 109.958 76.3364 109.958 76.3364L149.501 110.381 149.501 110.381 149.501 110.381C150.558 111.438 150.981 111.861 151.827 113.13L167.052 95.5791 149.078 66.1864Z" transform="matrix(1 0 0 1 724 509)"/></g></g></g><text fill="#3C4F59" font-family="Arial,Arial_MSFontService,sans-serif" font-weight="400" font-size="83" transform="matrix(1 0 0 1 960.242 640)">Auftrag</text></g></svg>