<svg width="826" height="206" xmlns="http://www.w3.org/2000/svg" xmlns:xlink="http://www.w3.org/1999/xlink" xml:space="preserve" overflow="hidden"><g transform="translate(-3195 -1445)"><g><g><g><path d="M168.448 37.5521 166.302 18.2396 142.698 41.8437 143.985 53.0021 109.652 87.3354C106.648 85.8333 103.215 84.7604 99.5666 84.7604 87.7645 84.7604 78.1083 94.4166 78.1083 106.219 78.1083 118.021 87.7645 127.677 99.5666 127.677 111.369 127.677 121.025 118.021 121.025 106.219 121.025 102.571 120.167 99.352 118.665 96.3479L152.998 62.0146 164.156 63.3021 187.76 39.6979 168.448 37.5521Z" transform="matrix(1.00485 0 0 1 3195 1445)"/><path d="M170.165 69.3104 167.375 72.3146 163.298 71.8854 158.792 71.2416C164.8 81.5416 168.448 93.3437 168.448 106.219 168.448 143.985 137.548 174.885 99.7812 174.885 62.0146 174.885 31.1146 143.985 31.1146 106.219 31.1146 68.452 62.0146 37.5521 99.7812 37.5521 112.442 37.5521 124.458 40.9854 134.758 47.2083L134.329 42.9166 133.685 38.625 136.69 35.6208 138.192 34.1187C126.604 28.1104 113.729 24.6771 99.7812 24.6771 54.7187 24.6771 18.2396 61.1562 18.2396 106.219 18.2396 151.281 54.7187 187.76 99.7812 187.76 144.844 187.76 181.323 151.281 181.323 106.219 181.323 92.2708 177.889 79.3958 171.667 68.0229L170.165 69.3104Z" transform="matrix(1.00485 0 0 1 3195 1445)"/><path d="M135.617 91.627C137.548 96.1333 138.406 101.069 138.406 106.219 138.406 127.462 121.025 144.844 99.7812 144.844 78.5375 144.844 61.1562 127.462 61.1562 106.219 61.1562 84.975 78.5375 67.5937 99.7812 67.5937 104.931 67.5937 109.867 68.6666 114.373 70.3833L124.029 60.7271C116.733 56.8646 108.579 54.7187 99.7812 54.7187 71.4562 54.7187 48.2812 77.8937 48.2812 106.219 48.2812 134.544 71.4562 157.719 99.7812 157.719 128.106 157.719 151.281 134.544 151.281 106.219 151.281 97.4208 149.135 89.2666 145.273 81.9708L135.617 91.627Z" transform="matrix(1.00485 0 0 1 3195 1445)"/></g></g></g><text fill="#3C4F59" font-family="Arial,Arial_MSFontService,sans-serif" font-weight="400" font-size="83" transform="matrix(1 0 0 1 3434.81 1578)">Requirement</text></g></svg>