<svg width="60" height="60" xmlns="http://www.w3.org/2000/svg" xmlns:xlink="http://www.w3.org/1999/xlink" xml:space="preserve" overflow="hidden"><g transform="translate(-997 -491)"><path d="M1046.06 501.938 1045.44 496.312 1038.56 503.188 1038.94 506.438 1028.94 516.438C1028.06 516 1027.06 515.688 1026 515.688 1022.56 515.688 1019.75 518.5 1019.75 521.938 1019.75 525.375 1022.56 528.188 1026 528.188 1029.44 528.188 1032.25 525.375 1032.25 521.938 1032.25 520.875 1032 519.938 1031.56 519.062L1041.56 509.062 1044.81 509.438 1051.69 502.562 1046.06 501.938Z"/><path d="M1046.56 511.188 1045.75 512.062 1044.56 511.938 1043.25 511.75C1045 514.75 1046.06 518.188 1046.06 521.938 1046.06 532.938 1037.06 541.938 1026.06 541.938 1015.06 541.938 1006.06 532.938 1006.06 521.938 1006.06 510.938 1015.06 501.938 1026.06 501.938 1029.75 501.938 1033.25 502.938 1036.25 504.75L1036.12 503.5 1035.94 502.25 1036.81 501.375 1037.25 500.938C1033.88 499.188 1030.12 498.188 1026.06 498.188 1012.94 498.188 1002.31 508.812 1002.31 521.938 1002.31 535.062 1012.94 545.688 1026.06 545.688 1039.19 545.688 1049.81 535.062 1049.81 521.938 1049.81 517.875 1048.81 514.125 1047 510.812L1046.56 511.188Z"/><path d="M1036.5 517.688C1037.06 519 1037.31 520.438 1037.31 521.938 1037.31 528.125 1032.25 533.188 1026.06 533.188 1019.88 533.188 1014.81 528.125 1014.81 521.938 1014.81 515.75 1019.88 510.688 1026.06 510.688 1027.56 510.688 1029 511 1030.31 511.5L1033.12 508.688C1031 507.562 1028.62 506.938 1026.06 506.938 1017.81 506.938 1011.06 513.688 1011.06 521.938 1011.06 530.188 1017.81 536.938 1026.06 536.938 1034.31 536.938 1041.06 530.188 1041.06 521.938 1041.06 519.375 1040.44 517 1039.31 514.875L1036.5 517.688Z"/></g></svg>