<svg width="4188" height="1995" xmlns="http://www.w3.org/2000/svg" xmlns:xlink="http://www.w3.org/1999/xlink" xml:space="preserve" overflow="hidden"><g transform="translate(-66 -399)"><rect x="76" y="582" width="1027" height="253" fill="#3C4F59"/><text fill="#FFFFFF" font-family="Arial,Arial_MSFontService,sans-serif" font-weight="700" font-size="64" transform="matrix(1 0 0 1 381.592 732)">Wir essen Eis</text><rect x="1130" y="582" width="1027" height="253" fill="#3C4F59"/><text fill="#FFFFFF" font-family="Arial,Arial_MSFontService,sans-serif" font-weight="700" font-size="64" transform="matrix(1 0 0 1 1276.22 732)">Wir</text><text fill="#FFFFFF" font-family="Arial,Arial_MSFontService,sans-serif" font-weight="700" font-size="64" transform="matrix(1 0 0 1 1397.11 732)">kaufen</text><text fill="#FFFFFF" font-family="Arial,Arial_MSFontService,sans-serif" font-weight="700" font-size="64" transform="matrix(1 0 0 1 1620.54 732)">ein</text><text fill="#FFFFFF" font-family="Arial,Arial_MSFontService,sans-serif" font-weight="700" font-size="64" transform="matrix(1 0 0 1 1730.54 732)">Flugzeu</text><text fill="#FFFFFF" font-family="Arial,Arial_MSFontService,sans-serif" font-weight="700" font-size="64" transform="matrix(1 0 0 1 1971.74 732)">g</text><text fill="#3C4F59" font-family="Arial,Arial_MSFontService,sans-serif" font-weight="700" font-size="92" transform="matrix(1 0 0 1 403.936 516)">Option 1</text><text fill="#3C4F59" font-family="Arial,Arial_MSFontService,sans-serif" font-weight="700" font-size="92" transform="matrix(1 0 0 1 1457.84 516)">Option 2</text><rect x="2184" y="582" width="1027" height="253" fill="#3C4F59"/><text fill="#FFFFFF" font-family="Arial,Arial_MSFontService,sans-serif" font-weight="700" font-size="64" transform="matrix(1 0 0 1 2503.72 732)">Wir</text><text fill="#FFFFFF" font-family="Arial,Arial_MSFontService,sans-serif" font-weight="700" font-size="64" transform="matrix(1 0 0 1 2624.6 732)">Schlafe</text><text fill="#FFFFFF" font-family="Arial,Arial_MSFontService,sans-serif" font-weight="700" font-size="64" transform="matrix(1 0 0 1 2852.05 732)">n</text><text fill="#3C4F59" font-family="Arial,Arial_MSFontService,sans-serif" font-weight="700" font-size="92" transform="matrix(1 0 0 1 2511.74 516)">Option 3</text><rect x="76" y="869" width="1027" height="410" fill="#92D050" fill-opacity="0.470588"/><rect x="1130" y="869" width="1027" height="410" fill="#92D050" fill-opacity="0.470588"/><rect x="2184" y="869" width="1027" height="410" fill="#92D050" fill-opacity="0.470588"/><rect x="76" y="1752" width="1027" height="428" fill="#F2F2F2"/><rect x="1130" y="1752" width="1027" height="428" fill="#F2F2F2"/><rect x="2184" y="1752" width="1027" height="428" fill="#F2F2F2"/><text fill="#3C4F59" font-family="Arial,Arial_MSFontService,sans-serif" font-weight="700" font-size="46" transform="matrix(1 0 0 1 108.987 1813)">Finanzielle / Aufwand Sicht</text><text fill="#3C4F59" font-family="Arial,Arial_MSFontService,sans-serif" font-weight="400" font-size="46" transform="matrix(1 0 0 1 697.945 1813)">:</text><text fill="#3C4F59" font-family="Arial,Arial_MSFontService,sans-serif" font-weight="400" font-size="46" transform="matrix(1 0 0 1 108.987 1868)">•</text><text fill="#3C4F59" font-family="Arial,Arial_MSFontService,sans-serif" font-weight="400" font-size="46" transform="matrix(1 0 0 1 170.862 1868)">2 €</text><text fill="#3C4F59" font-family="Arial,Arial_MSFontService,sans-serif" font-weight="700" font-size="46" transform="matrix(1 0 0 1 1162.89 1813)">Finanzielle / Aufwand Sicht</text><text fill="#3C4F59" font-family="Arial,Arial_MSFontService,sans-serif" font-weight="400" font-size="46" transform="matrix(1 0 0 1 1751.85 1813)">:</text><text fill="#3C4F59" font-family="Arial,Arial_MSFontService,sans-serif" font-weight="400" font-size="46" transform="matrix(1 0 0 1 1162.89 1868)">•</text><text fill="#3C4F59" font-family="Arial,Arial_MSFontService,sans-serif" font-weight="400" font-size="46" transform="matrix(1 0 0 1 1224.76 1868)">Ganz Teuer</text><text fill="#3C4F59" font-family="Arial,Arial_MSFontService,sans-serif" font-weight="700" font-size="46" transform="matrix(1 0 0 1 2216.79 1813)">Finanzielle / Aufwand Sicht</text><text fill="#3C4F59" font-family="Arial,Arial_MSFontService,sans-serif" font-weight="400" font-size="46" transform="matrix(1 0 0 1 2805.75 1813)">:</text><text fill="#3C4F59" font-family="Arial,Arial_MSFontService,sans-serif" font-weight="400" font-size="46" transform="matrix(1 0 0 1 2216.79 1868)">•</text><text fill="#3C4F59" font-family="Arial,Arial_MSFontService,sans-serif" font-weight="400" font-size="46" transform="matrix(1 0 0 1 2278.66 1868)">Keine</text><text fill="#3C4F59" font-family="Arial,Arial_MSFontService,sans-serif" font-weight="400" font-size="46" transform="matrix(1 0 0 1 2407.57 1868)">Einkünft</text><text fill="#3C4F59" font-family="Arial,Arial_MSFontService,sans-serif" font-weight="400" font-size="46" transform="matrix(1 0 0 1 2572 1868)">e</text><rect x="76" y="2200" width="1027" height="194" fill="#F2F2F2"/><rect x="1130" y="2200" width="1027" height="194" fill="#F2F2F2"/><rect x="2184" y="2200" width="1027" height="194" fill="#F2F2F2"/><g><g><g><path d="M156.75 83.7187C156.75 77.8406 151.94 73.0312 146.062 73.0312L112.219 73.0312C109.369 73.0312 107.053 70.7156 106.875 67.8656 107.053 64.6593 112.219 58.2468 112.219 33.8437 112.219 27.9656 107.409 23.1562 101.531 23.1562 95.653 23.1562 90.8437 27.9656 90.8437 33.8437 90.8437 60.9187 59.3156 76.2374 58.7812 76.5937L58.7812 133.594C71.4281 133.594 72.3187 147.844 96.1874 147.844 104.203 147.844 128.25 147.844 128.25 147.844 134.128 147.844 138.937 143.034 138.937 137.156 138.937 134.306 137.869 131.812 136.087 130.031 136.444 130.031 136.8 130.031 137.156 130.031 143.034 130.031 147.844 125.222 147.844 119.344 147.844 116.494 146.775 113.822 144.815 111.862 149.625 110.794 153.187 106.519 153.187 101.531 153.187 98.503 151.94 95.653 149.803 93.6937 153.9 92.2687 156.75 88.3499 156.75 83.7187Z" fill="#CC9B00" transform="matrix(-1.83697e-16 -1 1.16959 -2.14851e-16 452 2382)"/><path d="M40.9687 67.6874 14.25 67.6874 14.25 142.5 40.9687 142.5C44.8875 142.5 48.0937 139.294 48.0937 135.375L48.0937 74.8124C48.0937 70.8937 44.8875 67.6874 40.9687 67.6874Z" fill="#CC9B00" transform="matrix(-1.83697e-16 -1 1.16959 -2.14851e-16 452 2382)"/></g></g></g><rect x="3227" y="582" width="1027" height="253" fill="#3C4F59"/><text fill="#FFFFFF" font-family="Arial,Arial_MSFontService,sans-serif" font-weight="700" font-size="64" transform="matrix(1 0 0 1 3541.78 732)">Keine Option</text><text fill="#3C4F59" font-family="Arial,Arial_MSFontService,sans-serif" font-weight="700" font-size="92" transform="matrix(1 0 0 1 3554.95 516)">Option 4</text><rect x="3227" y="869" width="1027" height="410" fill="#92D050" fill-opacity="0.470588"/><rect x="3227" y="1752" width="1027" height="428" fill="#F2F2F2"/><text fill="#3C4F59" font-family="Arial,Arial_MSFontService,sans-serif" font-weight="700" font-size="46" transform="matrix(1 0 0 1 3260 1813)">Finanzielle / Aufwand Sicht</text><text fill="#3C4F59" font-family="Arial,Arial_MSFontService,sans-serif" font-weight="400" font-size="46" transform="matrix(1 0 0 1 3848.96 1813)">:</text><text fill="#3C4F59" font-family="Arial,Arial_MSFontService,sans-serif" font-weight="400" font-size="46" transform="matrix(1 0 0 1 3260 1868)">•</text><text fill="#3C4F59" font-family="Arial,Arial_MSFontService,sans-serif" font-weight="400" font-size="46" transform="matrix(1 0 0 1 3321.88 1868)">X</text><rect x="3227" y="2200" width="1027" height="194" fill="#F2F2F2"/><rect x="76" y="1305" width="1027" height="410" fill="#F7A4A7"/><rect x="1130" y="1305" width="1027" height="410" fill="#F7A4A7"/><rect x="2184" y="1305" width="1027" height="410" fill="#F7A4A7"/><rect x="3227" y="1305" width="1027" height="410" fill="#F7A4A7"/><text fill="#3C4F59" font-family="Arial,Arial_MSFontService,sans-serif" font-weight="400" font-size="50" transform="matrix(1 0 0 1 108.987 1371)">•</text><text fill="#3C4F59" font-family="Arial,Arial_MSFontService,sans-serif" font-weight="400" font-size="50" transform="matrix(1 0 0 1 170.862 1371)">Ungesund</text><text fill="#3C4F59" font-family="Arial,Arial_MSFontService,sans-serif" font-weight="400" font-size="50" transform="matrix(1 0 0 1 1172.48 1378)">•</text><text fill="#3C4F59" font-family="Arial,Arial_MSFontService,sans-serif" font-weight="400" font-size="50" transform="matrix(1 0 0 1 1234.35 1378)">Teuer</text><text fill="#3C4F59" font-family="Arial,Arial_MSFontService,sans-serif" font-weight="400" font-size="50" transform="matrix(1 0 0 1 2216.79 1369)">•</text><text fill="#3C4F59" font-family="Arial,Arial_MSFontService,sans-serif" font-weight="400" font-size="50" transform="matrix(1 0 0 1 2278.66 1369)">Man kann nicht nur Schlafen</text><text fill="#3C4F59" font-family="Arial,Arial_MSFontService,sans-serif" font-weight="400" font-size="50" transform="matrix(1 0 0 1 1162.89 934)">•</text><text fill="#3C4F59" font-family="Arial,Arial_MSFontService,sans-serif" font-weight="400" font-size="50" transform="matrix(1 0 0 1 1224.76 934)">Wir kommen Heim wenn die Lufthansa </text><text fill="#3C4F59" font-family="Arial,Arial_MSFontService,sans-serif" font-weight="400" font-size="50" transform="matrix(1 0 0 1 1224.76 995)">streikt</text><text fill="#3C4F59" font-family="Arial,Arial_MSFontService,sans-serif" font-weight="400" font-size="50" transform="matrix(1 0 0 1 2216.79 930)">•</text><text fill="#3C4F59" font-family="Arial,Arial_MSFontService,sans-serif" font-weight="400" font-size="50" transform="matrix(1 0 0 1 2278.66 930)">Wir müssen nichts machen</text><text fill="#3C4F59" font-family="Arial,Arial_MSFontService,sans-serif" font-weight="400" font-size="50" transform="matrix(1 0 0 1 99.3941 934)">•</text><text fill="#3C4F59" font-family="Arial,Arial_MSFontService,sans-serif" font-weight="400" font-size="50" transform="matrix(1 0 0 1 161.269 934)">Wir</text><text fill="#3C4F59" font-family="Arial,Arial_MSFontService,sans-serif" font-weight="400" font-size="50" transform="matrix(1 0 0 1 250.644 934)">haben was leckeres zu Essen</text><path d="M3605 710.5C3605 640.636 3664.99 584 3739 584 3813.01 584 3873 640.636 3873 710.5 3873 780.364 3813.01 837 3739 837 3664.99 837 3605 780.364 3605 710.5ZM3814.31 749.474C3837.88 711.484 3823.27 663.236 3781.67 641.711 3755.72 628.28 3724.02 628.001 3697.79 640.974ZM3663.69 671.526C3640.12 709.517 3654.73 757.764 3696.33 779.289 3722.28 792.72 3753.98 792.999 3780.21 780.026Z" fill="#FF0000" fill-rule="evenodd"/><text fill="#3C4F59" font-family="Arial,Arial_MSFontService,sans-serif" font-weight="400" font-size="50" transform="matrix(1 0 0 1 3260 1368)">•</text><text fill="#3C4F59" font-family="Arial,Arial_MSFontService,sans-serif" font-weight="400" font-size="50" transform="matrix(1 0 0 1 3321.88 1368)">Kein Option</text></g></svg>