<svg width="49" height="58" xmlns="http://www.w3.org/2000/svg" xmlns:xlink="http://www.w3.org/1999/xlink" xml:space="preserve" overflow="hidden"><g transform="translate(-1102 -23)"><path d="M44.9167 23.9896C44.9167 22.3052 43.5385 20.9271 41.8542 20.9271L32.1562 20.9271C31.3396 20.9271 30.676 20.2635 30.625 19.4469 30.676 18.5281 32.1562 16.6906 32.1562 9.69792 32.1562 8.01354 30.7781 6.63542 29.0938 6.63542 27.4094 6.63542 26.0313 8.01354 26.0313 9.69792 26.0313 17.4563 16.9969 21.8458 16.8438 21.9479L16.8438 38.2812C20.4677 38.2812 20.7229 42.3646 27.5625 42.3646 29.8594 42.3646 36.75 42.3646 36.75 42.3646 38.4344 42.3646 39.8125 40.9865 39.8125 39.3021 39.8125 38.4854 39.5063 37.7708 38.9958 37.2604 39.0979 37.2604 39.2 37.2604 39.3021 37.2604 40.9865 37.2604 42.3646 35.8823 42.3646 34.1979 42.3646 33.3813 42.0583 32.6156 41.4969 32.0542 42.875 31.7479 43.8958 30.5229 43.8958 29.0938 43.8958 28.226 43.5385 27.4094 42.926 26.8479 44.1 26.4396 44.9167 25.3167 44.9167 23.9896Z" fill="#00B050" transform="matrix(1 0 0 1.18367 1102 23)"/><path d="M11.7396 19.3958 4.08333 19.3958 4.08333 40.8333 11.7396 40.8333C12.8625 40.8333 13.7813 39.9146 13.7813 38.7917L13.7813 21.4375C13.7813 20.3146 12.8625 19.3958 11.7396 19.3958Z" fill="#00B050" transform="matrix(1 0 0 1.18367 1102 23)"/></g></svg>